<?xml version="1.0" encoding="UTF-8" standalone="no"?><!DOCTYPE svg PUBLIC "-//W3C//DTD SVG 1.1//EN" "http://www.w3.org/Graphics/SVG/1.1/DTD/svg11.dtd"><svg width="100%" height="100%" viewBox="0 0 4267 4267" version="1.1" xmlns="http://www.w3.org/2000/svg" xmlns:xlink="http://www.w3.org/1999/xlink" xml:space="preserve" xmlns:serif="http://www.serif.com/" style="fill-rule:evenodd;clip-rule:evenodd;stroke-linejoin:round;stroke-miterlimit:2;"><g><g id="Background"><path d="M2135.474,760.221c1.252,-2.659 -1.134,-2.92 0.129,-5.602c0.293,-0.623 0.604,-1.283 5.59,-6.544c71.114,-75.032 101.814,-99.748 111.465,-107.517c52.892,-42.581 83.723,-58.493 112.858,-74.799c73.172,-40.953 163.686,-59.309 175.423,-62.125c14.792,-3.549 85.626,-11.88 100.141,-11.992c105.765,-0.817 175.398,18.649 194.279,22.317c29.886,5.806 125.757,35.043 206.989,88.251c1.562,1.023 140.209,81.933 230.961,238.949c68.3,118.17 76.463,198.487 85.562,244.53c11.177,56.555 5.695,167.989 2.596,187.542c-29.371,185.326 -111.032,288.497 -142.397,327.308c-37.086,45.889 -41.233,50.973 -110.733,114.548c-22.869,20.919 -23.578,19.955 -37.02,31.716c-51.223,44.819 -52.367,43.387 -81.382,68.595c-57.359,49.833 -70.065,60.37 -104.217,102.049c-13.429,16.389 -12.972,24.455 -19.618,24.682c-8.729,0.299 -5.831,-3.934 -7.924,-12.291c-1.952,-7.791 -11.287,-41.967 -48.338,-56.863c-19.697,-7.919 -30.196,-2.53 -26.388,-19.14c0.371,-1.618 74.759,-160.737 96.197,-198.987c2.518,-4.492 19.14,-34.15 30.454,-56.708c44.616,-88.96 47.164,-87.802 81.479,-181.219c12.401,-33.759 29.236,-104.823 31.938,-125.017c9.687,-72.405 23.522,-192.297 -36.77,-338.413c-10.398,-25.198 -34.106,-64.068 -37.742,-69.136c-24.972,-34.806 -35.501,-54.695 -86.868,-101.412c-18.397,-16.732 -90.96,-80.902 -209.046,-114.669c-93.989,-26.877 -160.952,-23.174 -174.56,-22.963c-33.88,0.526 -86.759,8.908 -93.359,10.393c-56.572,12.723 -118.263,25.508 -206.025,80.851c-22.308,14.067 -19.314,19.019 -43.854,28.516l0.183,-4.848Z" style="fill:#81b331;"/><path d="M2135.474,760.221l-0.183,4.848c-2.017,-0.519 -4.206,1.071 -6.223,0.553c-9.495,-2.442 -26.164,-20.313 -63.563,-41.555c-44.009,-24.996 -116.582,-53.645 -156.117,-61.543c-20.272,-4.05 -22.074,-8.377 -62.323,-12.211c-14.097,-1.343 -163.41,-27.795 -330.411,55.072c-110.558,54.859 -169.619,134.497 -180.801,149.575c-34.793,46.916 -93.28,150.107 -98.466,274.391c-0.778,18.653 -2.209,18.456 -2.286,37.392c-0.18,43.915 1.153,43.755 3.523,87.693c0.935,17.327 12.823,93.545 31.875,150.426c7.241,21.619 6.756,21.66 15.156,42.801c20.182,50.792 19.208,51.118 44.02,99.763c11.447,22.443 11.058,22.547 23.046,44.786c7.425,13.774 63.857,118.463 87.82,174.774c4.024,9.455 4.835,8.971 12.244,25.143c1.863,4.066 2.384,3.724 24.441,50.281c2.5,5.278 13.845,19.642 1.392,24.416c-6.296,2.413 -9.769,1.157 -26.426,9.415c-40.355,20.006 -41.784,57.084 -47.651,60.489c-6.141,3.564 -7.011,2.464 -11.761,-2.855c-10.382,-11.627 -9.19,-12.516 -19.587,-24.132c-9.477,-10.588 -25.873,-33.199 -142.862,-132.594c-28.652,-24.343 -29.078,-23.735 -56.805,-49.223c-34.241,-31.475 -35.117,-30.403 -68.306,-62.865c-46.129,-45.118 -44.921,-46.209 -84.364,-97.209c-42.461,-54.901 -97.916,-171.753 -109.321,-270.065c-2.099,-18.094 -3.569,-17.82 -7.196,-56.117c-4.351,-45.942 -6.522,-85.44 8.083,-180.803c4.453,-29.078 24.407,-103.3 42.503,-143.51c1.382,-3.07 22.637,-55.473 58.38,-108.732c8.782,-13.086 26.528,-42.649 72.482,-90.979c29.032,-30.533 28.721,-30.713 60.579,-58.3c18.961,-16.419 57.512,-44.932 59.101,-45.92c41.362,-25.723 184.692,-124.472 404.36,-121.514c18.756,0.253 18.624,1.289 37.36,2.186c37.391,1.791 97.701,15.782 106.083,17.727c165.967,38.502 291.461,153.428 322.293,188.833c3.497,4.016 23.958,27.512 46.872,47.271c1.103,0.951 2.589,1.458 3.544,2.558c1.481,1.705 0.456,2.245 2.025,3.853c3.374,3.458 4.126,2.451 7.47,5.88Z" style="fill:#238fcc;"/><path d="M2215.583,2709.842c-48.707,37.866 -49.204,43.59 -55.875,38.268c-2.272,-1.812 -1.648,-7.451 -1.42,-118.87c0.308,-150.661 -0.677,-150.634 2.531,-174.888c1.853,-14.009 0.021,-32.515 10.837,-75.294c23.931,-94.65 52.062,-145.75 118.568,-219.323c12.638,-13.981 12.706,-13.963 77.609,-65.802c9.629,-7.691 60.057,-37.352 66.221,-41.103c22.583,-13.743 22.902,-12.904 61.665,-32.96c25.154,-13.014 167.539,-83.452 232.571,-98.044c49.233,-11.046 65.212,2.074 73.888,14.584c6.554,9.452 11.644,35.692 -12.549,66.709c-35.069,44.96 -76.931,58.27 -152.981,109.959c-1.344,0.913 -29.008,23.238 -40.138,40.614c-7.51,11.725 -21.461,31.026 -5.508,32.186c15.97,1.16 80.603,-3.263 125.198,-18.787c94.363,-32.847 140.047,-72.769 194.681,-124.211c76.693,-72.211 161.442,-211.415 243.647,-293.947c38.071,-38.223 50.173,-48.142 85.743,-71.052c40.037,-25.786 83.711,-36.305 88,-34.86c1.301,0.438 1.726,2.139 2.676,3.129c5.579,5.816 1.144,6.695 -3.823,20.096c-62.197,167.794 -102.272,242.775 -166.118,357.393c-12.103,21.727 -58.696,95.287 -76.796,117.604c-28.591,35.251 -66.726,92.612 -167.547,170.037c-105.072,80.689 -230.153,133.549 -331.733,180.677c-57.957,26.889 -193.299,97.604 -257.849,141.287c-3.677,2.489 -4.065,1.74 -46.7,29.999c-4.153,2.753 -33.566,22.248 -50.823,36c-6.23,4.965 -12.841,9.772 -13.976,10.597Z" style="fill:#73a42d;"/><path d="M2052.822,2717.785c-64.91,-48.2 -104.209,-73.505 -113.531,-79.509c-12.243,-7.883 -90.734,-58.426 -156.112,-93.584c-137.851,-74.13 -141.798,-65.996 -280.975,-137.869c-9.77,-5.045 -77.206,-39.87 -118.111,-70.298c-25.34,-18.85 -38.974,-27.917 -43.548,-31.596c-57.884,-46.556 -89.153,-80.68 -109.429,-102.996c-19.907,-21.909 -77.451,-93.272 -130.513,-189.87c-6.253,-11.383 -52.98,-96.447 -73.935,-144.526c-19.257,-44.183 -29.993,-63.589 -46.966,-107.516c-13.865,-35.883 -31.958,-76.871 -37.723,-93.603c-3.32,-9.634 -6.904,-15.268 -2.666,-19.719c0.874,-0.918 1.309,-2.391 2.476,-2.887c5.392,-2.29 35.72,8.474 42.407,11.728c25.792,12.553 86.749,37.5 179.789,150.393c60.306,73.174 100.754,135.308 151.115,192.903c72.714,83.16 138.38,135.738 237.833,169.733c50.222,17.167 119.664,20.236 124.764,15.715c5.299,-4.699 -3.321,-17.485 -6.71,-23.028c-2.263,-3.7 -2.289,-3.586 -4.459,-7.304c-28.097,-48.154 -133.067,-97.467 -161.16,-120.607c-57.545,-47.4 -58.37,-98.26 -27.204,-111.285c51.099,-21.355 166.872,42.266 200.862,56.137c21.402,8.734 105.38,52.53 160.433,85.131c128.481,76.083 173.463,151.297 175.572,154.157c96.154,130.352 86.124,277.362 86.174,293.017c0.06,18.914 0.739,234.055 -0.3,236.429c-1.931,4.41 -9.452,2.394 -10.263,2.176c-1.866,-0.5 -15.993,-15.49 -37.817,-31.323Z" style="fill:#2597d1;"/><path d="M2118.045,2271.968c-8.613,-17.733 -17.66,-31.727 -17.722,-31.837c-3.738,-6.67 -23.638,-42.184 -53.812,-78.992c-72.172,-88.041 -134.123,-120.759 -185.397,-152.649c-19.016,-11.827 -24.742,-8.108 -30.159,-29.836c-11.458,-45.957 -10.828,-46.062 -14.068,-93.214c-2.215,-32.229 11.677,-88.818 26.754,-123.752c4.34,-10.055 22.144,-39.662 24.738,-43.305c17.388,-24.424 31.391,-37.072 34.523,-39.902c25.502,-23.035 52.599,-39.121 57.499,-42.03c7.299,-4.333 45.734,-27.151 99.81,-36.013c69.31,-11.359 102.012,-6.088 136.842,-0.526c103.352,16.505 200.795,90.863 235.117,205.172c7.69,25.611 12.336,71.74 10.445,86.844c-6.595,52.685 -6.442,52.695 -7.25,56.181c-3.309,14.278 -8.966,39.931 -12.735,43.903c-4.549,4.793 -37.54,20.553 -51.108,29.707c-18.602,12.55 -65.606,40.83 -116.13,90.582c-4.763,4.691 -36.365,35.81 -55.13,62.798c-2.045,2.941 -22.524,32.394 -25.232,36.982c-42.102,71.328 -35.294,80.588 -46.235,79.008c-4.495,-0.649 -3.653,-1.977 -5.258,-6.288c-2.464,-6.617 -2.464,-6.487 -5.492,-12.832Z" style="fill:#f9a425;"/><path d="M1742.235,1945.666c-122.962,-58.82 -123.858,-58.424 -162.125,-93.128c-69.719,-63.228 -93.205,-123.869 -98.352,-134.366c-21.451,-43.754 -31.063,-101.235 -32.072,-114.163c-3.393,-43.504 -4.56,-43.521 -0.087,-87.012c7.389,-71.846 45.419,-138.275 65.234,-163.7c52.991,-67.995 112.146,-94.76 125.471,-100.783c76.819,-34.72 142.511,-37.655 212.95,-27.247c40.868,6.038 118.429,40.496 120.471,46.851c3.07,9.554 -1.234,8.932 -7.878,19.464c-22.79,36.126 -30.017,49.33 -37.949,100.072c-4.68,29.941 2.734,90.132 37.072,138.334c10.709,15.032 19.497,24.3 7.059,29.998c-113.306,51.903 -163.359,145.777 -165.121,148.736c-57.853,97.165 -46.534,179.455 -44.67,201.578c2.975,35.299 5.678,34.992 5.184,38.022c-0.297,1.82 -5.942,6.079 -7.589,5.852c0,0 -16.192,-7.826 -17.6,-8.507Z" style="fill:#1658a6;"/><path d="M2517.489,1944.822c-4.204,2.288 -14.473,9.556 -19.35,7.436c-9.114,-3.962 1.422,-7.83 2.176,-66.712c0.569,-44.388 0.396,-44.553 -13.199,-100.588c-6.43,-26.504 -27.485,-75.336 -54.683,-110.142c-31.717,-40.59 -61.701,-63.924 -67.794,-68.665c-28.123,-21.885 -77.585,-46.703 -78.016,-47.269c-7.682,-10.073 7.751,-10.631 33.641,-68.06c0.82,-1.818 20.826,-55.433 14.248,-99.042c-4.97,-32.946 -11.596,-62.005 -40.55,-102.087c-10.358,-14.34 1.714,-20.027 4.227,-21.619c12.284,-7.781 68.708,-36.709 124.361,-43.345c9.932,-1.184 74.565,-8.891 124.981,3.71c48.815,12.201 133.229,37.662 200.841,125.009c37.795,48.828 66.427,116.583 69.046,200.757c0.124,3.991 -0.013,3.892 -3.702,49.771c-4.786,59.53 -38.359,135.593 -67.704,174.294c-8.329,10.985 -47.019,64.964 -103.55,103.116c-9.294,6.272 -39.507,26.663 -124.974,63.433Z" style="fill:#6a9b2a;"/><path d="M1834.31,1170.791c-30.798,5.837 -43.85,7.394 -80.295,0.272c-53.303,-10.416 -88.861,-47.346 -94.91,-53.628c-76.235,-79.177 -52,-185.841 -14.773,-234.226c10.987,-14.281 24.665,-33.419 64.362,-56.134c68.353,-39.114 211.528,-30.654 260.443,100.976c23.984,64.541 10.704,149.175 -55.158,204.997c-23.653,20.047 -55.537,30.77 -60.764,32.527c-1.487,0.5 -1.4,0.386 -18.905,5.216Z" style="fill:#1c6ebc;"/><path d="M2447.933,1170.4c-9.517,-2.862 -51.868,-11.047 -93.489,-54.469c-53.096,-55.394 -49.375,-127.53 -48.445,-136.42c3.2,-30.576 11.966,-87.213 70.665,-133.951c56.475,-44.967 125.007,-40.716 145.939,-36.457c45.097,9.175 59.372,21.478 68.046,27.046c92.481,59.375 90.327,157.69 81.854,193.132c-14.079,58.888 -45.36,86.708 -48.083,89.482c-7.114,7.248 -46.466,47.342 -114.551,54.705c-35.17,3.804 -57.748,-2.339 -61.936,-3.069Z" style="fill:#80b231;"/><path d="M2128.61,1558.081c-1.177,-0.07 -18.695,-0.16 -31.4,-3.385c-21.642,-5.494 -29.614,-9.992 -31.978,-11.326c-29.93,-16.89 -65.276,-39.649 -80.76,-107.803c-10.841,-47.715 12.381,-142.752 112.614,-169.79c14.127,-3.811 50.684,-4.853 69.252,-0.033c43.668,11.337 65.177,34.395 74.79,44.702c54.721,58.668 38.962,130.238 31.144,150.026c-36.37,92.064 -112.809,96.889 -143.663,97.61Z" style="fill:#faaf2b;"/><path d="M2022.311,1932.799c-32.765,0.224 -45.172,4.153 -44.906,-28.565c0.438,-53.84 -1.604,-60.959 13.355,-64.036c6.258,-1.287 79.564,-0.463 81.357,-0.818c11.519,-2.28 11.32,-4.764 11.449,-16.409c0.835,-75.555 -2.149,-84.267 6.665,-88.692c6.245,-3.135 6.598,-1.98 63.444,-2.775c26.005,-0.363 21.879,17.213 22.028,60.231c0.116,33.462 -1.046,40.36 2.461,44.105c4.588,4.9 14.983,3.72 69.149,3.497c24.214,-0.1 34.144,-0.941 34.288,27.389c0.23,45.309 4.896,64.54 -21.899,66.097c-3.588,0.208 -71.394,-0.234 -75.432,0.864c-7.793,2.12 -8.093,12.827 -8.129,14.131c-0.286,10.224 1.056,76.196 -0.451,80.675c-4.315,12.826 -9.854,12.89 -65.862,13.388c-31.319,0.278 -26.751,-15.733 -25.82,-75.147c0.129,-8.23 2.191,-29.077 -4.859,-32.222c-4.402,-1.964 -15.919,-1.683 -56.84,-1.714Z" style="fill:#fdfdfd;"/></g><g transform="matrix(4.166667,0,0,4.166667,-703.437568,-1236.424212)"><g transform="matrix(144,0,0,144,325.85236,1089.051583)"><path d="M0.066,-0l0,-0.728l0.229,0l0.118,0.334c0.005,0.015 0.011,0.036 0.017,0.06c0.006,0.025 0.013,0.052 0.019,0.08c0.007,0.029 0.013,0.056 0.018,0.083c0.006,0.027 0.01,0.05 0.014,0.07l-0.029,0c0.004,-0.02 0.009,-0.043 0.014,-0.07c0.006,-0.027 0.012,-0.055 0.018,-0.083c0.007,-0.029 0.013,-0.056 0.019,-0.081c0.006,-0.025 0.012,-0.045 0.017,-0.061l0.116,-0.334l0.229,0l0,0.728l-0.15,-0l0,-0.343c0,-0.016 0,-0.036 0.001,-0.059c0.001,-0.024 0.001,-0.049 0.002,-0.077c0.001,-0.027 0.001,-0.055 0.002,-0.083c0.001,-0.028 0.001,-0.054 0.001,-0.079l0.01,0c-0.006,0.027 -0.013,0.055 -0.021,0.084c-0.008,0.029 -0.015,0.057 -0.023,0.084c-0.008,0.027 -0.015,0.052 -0.022,0.074c-0.007,0.023 -0.013,0.041 -0.018,0.056l-0.12,0.343l-0.126,-0l-0.122,-0.343c-0.005,-0.015 -0.011,-0.033 -0.018,-0.056c-0.007,-0.022 -0.014,-0.047 -0.022,-0.074c-0.008,-0.027 -0.016,-0.055 -0.023,-0.084c-0.008,-0.029 -0.015,-0.057 -0.022,-0.085l0.012,0c0,0.024 0.001,0.049 0.001,0.077c0.001,0.028 0.003,0.137 0.004,0.161c0.001,0.024 0.001,0.044 0.001,0.061l0,0.343l-0.148,-0Z" style="fill:#185cab;fill-rule:nonzero;"/></g><g transform="matrix(144,0,0,144,460.00861,1089.051583)"><path d="M0.309,0.011c-0.056,0 -0.104,-0.011 -0.144,-0.034c-0.04,-0.023 -0.071,-0.055 -0.093,-0.097c-0.022,-0.042 -0.032,-0.092 -0.032,-0.149c0,-0.056 0.011,-0.105 0.032,-0.148c0.022,-0.042 0.052,-0.075 0.091,-0.099c0.039,-0.024 0.086,-0.036 0.139,-0.036c0.036,0 0.069,0.006 0.1,0.017c0.031,0.011 0.058,0.028 0.082,0.051c0.023,0.023 0.042,0.052 0.055,0.086c0.013,0.035 0.02,0.075 0.02,0.122l0,0.041l-0.458,0l0,-0.092l0.387,0l-0.068,0.025c0,-0.028 -0.004,-0.053 -0.013,-0.074c-0.009,-0.021 -0.022,-0.037 -0.039,-0.049c-0.017,-0.012 -0.038,-0.017 -0.064,-0.017c-0.025,0 -0.047,0.006 -0.064,0.018c-0.018,0.012 -0.031,0.028 -0.04,0.048c-0.009,0.02 -0.014,0.043 -0.014,0.068l0,0.065c0,0.032 0.005,0.058 0.016,0.08c0.011,0.021 0.025,0.038 0.045,0.048c0.019,0.011 0.041,0.016 0.067,0.016c0.017,0 0.033,-0.002 0.047,-0.007c0.014,-0.005 0.026,-0.012 0.036,-0.022c0.01,-0.01 0.018,-0.021 0.023,-0.035l0.132,0.024c-0.009,0.03 -0.024,0.056 -0.046,0.079c-0.022,0.023 -0.049,0.04 -0.082,0.052c-0.033,0.012 -0.07,0.019 -0.113,0.019Z" style="fill:#185cab;fill-rule:nonzero;"/></g><g transform="matrix(144,0,0,144,545.78986,1089.051583)"><path d="M0.262,0.009c-0.042,0 -0.079,-0.011 -0.113,-0.032c-0.034,-0.022 -0.06,-0.053 -0.08,-0.095c-0.02,-0.042 -0.029,-0.093 -0.029,-0.154c0,-0.062 0.01,-0.114 0.03,-0.156c0.02,-0.042 0.047,-0.073 0.081,-0.094c0.034,-0.021 0.07,-0.031 0.111,-0.031c0.031,0 0.057,0.005 0.077,0.016c0.021,0.01 0.037,0.023 0.05,0.038c0.013,0.015 0.022,0.03 0.029,0.045l0.005,0l0,-0.274l0.146,0l0,0.728l-0.144,-0l0,-0.087l-0.007,0c-0.007,0.015 -0.017,0.029 -0.029,0.044c-0.013,0.015 -0.03,0.027 -0.05,0.037c-0.02,0.01 -0.046,0.015 -0.075,0.015Zm0.045,-0.117c0.025,0 0.046,-0.007 0.064,-0.021c0.018,-0.014 0.031,-0.033 0.04,-0.057c0.009,-0.025 0.014,-0.053 0.014,-0.086c0,-0.033 -0.005,-0.062 -0.014,-0.086c-0.009,-0.024 -0.022,-0.043 -0.04,-0.057c-0.018,-0.013 -0.039,-0.02 -0.064,-0.02c-0.026,0 -0.047,0.007 -0.064,0.021c-0.017,0.014 -0.031,0.033 -0.039,0.057c-0.009,0.024 -0.013,0.053 -0.013,0.085c0,0.032 0.004,0.06 0.013,0.085c0.009,0.025 0.022,0.044 0.04,0.058c0.017,0.014 0.039,0.021 0.064,0.021Z" style="fill:#185cab;fill-rule:nonzero;"/></g><g transform="matrix(144,0,0,144,636.563298,1089.051583)"><path d="M0.062,-0l0,-0.546l0.146,0l0,0.546l-0.146,-0Zm0.073,-0.617c-0.022,0 -0.041,-0.007 -0.057,-0.022c-0.016,-0.015 -0.024,-0.032 -0.024,-0.053c0,-0.021 0.008,-0.039 0.024,-0.053c0.016,-0.015 0.035,-0.022 0.057,-0.022c0.022,0 0.041,0.007 0.057,0.022c0.016,0.015 0.024,0.032 0.024,0.053c0,0.021 -0.008,0.038 -0.024,0.053c-0.016,0.015 -0.035,0.022 -0.057,0.022Z" style="fill:#185cab;fill-rule:nonzero;"/></g><g transform="matrix(144,0,0,144,675.586735,1089.051583)"><path d="M0.176,-0.165l0,-0.136c0.015,-0.027 0.029,-0.052 0.044,-0.075c0.014,-0.023 0.03,-0.046 0.047,-0.069c0.017,-0.023 0.037,-0.048 0.059,-0.075l0.178,-0.209l0.182,0l-0.307,0.355l-0.012,-0.004l-0.191,0.212Zm-0.11,0.165l0,-0.728l0.149,0l0,0.199l-0.003,0.185l0.003,0.073l0,0.271l-0.149,-0Zm0.452,-0l-0.216,-0.328l0.094,-0.111l0.298,0.439l-0.176,-0Z" style="fill:#67962b;fill-rule:nonzero;"/></g><g transform="matrix(144,0,0,144,773.461735,1089.051583)"><path d="M0.309,0.011c-0.056,0 -0.104,-0.011 -0.144,-0.034c-0.04,-0.023 -0.071,-0.055 -0.093,-0.097c-0.022,-0.042 -0.032,-0.092 -0.032,-0.149c0,-0.056 0.011,-0.105 0.032,-0.148c0.022,-0.042 0.052,-0.075 0.091,-0.099c0.039,-0.024 0.086,-0.036 0.139,-0.036c0.036,0 0.069,0.006 0.1,0.017c0.031,0.011 0.058,0.028 0.082,0.051c0.023,0.023 0.042,0.052 0.055,0.086c0.013,0.035 0.02,0.075 0.02,0.122l0,0.041l-0.458,0l0,-0.092l0.387,0l-0.068,0.025c0,-0.028 -0.004,-0.053 -0.013,-0.074c-0.009,-0.021 -0.022,-0.037 -0.039,-0.049c-0.017,-0.012 -0.038,-0.017 -0.064,-0.017c-0.025,0 -0.047,0.006 -0.064,0.018c-0.018,0.012 -0.031,0.028 -0.04,0.048c-0.009,0.02 -0.014,0.043 -0.014,0.068l0,0.065c0,0.032 0.005,0.058 0.016,0.08c0.011,0.021 0.025,0.038 0.045,0.048c0.019,0.011 0.041,0.016 0.067,0.016c0.017,0 0.033,-0.002 0.047,-0.007c0.014,-0.005 0.026,-0.012 0.036,-0.022c0.01,-0.01 0.018,-0.021 0.023,-0.035l0.132,0.024c-0.009,0.03 -0.024,0.056 -0.046,0.079c-0.022,0.023 -0.049,0.04 -0.082,0.052c-0.033,0.012 -0.07,0.019 -0.113,0.019Z" style="fill:#67962b;fill-rule:nonzero;"/></g><g transform="matrix(144,0,0,144,859.242985,1089.051583)"><path d="M0.309,0.011c-0.056,0 -0.104,-0.011 -0.144,-0.034c-0.04,-0.023 -0.071,-0.055 -0.093,-0.097c-0.022,-0.042 -0.032,-0.092 -0.032,-0.149c0,-0.056 0.011,-0.105 0.032,-0.148c0.022,-0.042 0.052,-0.075 0.091,-0.099c0.039,-0.024 0.086,-0.036 0.139,-0.036c0.036,0 0.069,0.006 0.1,0.017c0.031,0.011 0.058,0.028 0.082,0.051c0.023,0.023 0.042,0.052 0.055,0.086c0.013,0.035 0.02,0.075 0.02,0.122l0,0.041l-0.458,0l0,-0.092l0.387,0l-0.068,0.025c0,-0.028 -0.004,-0.053 -0.013,-0.074c-0.009,-0.021 -0.022,-0.037 -0.039,-0.049c-0.017,-0.012 -0.038,-0.017 -0.064,-0.017c-0.025,0 -0.047,0.006 -0.064,0.018c-0.018,0.012 -0.031,0.028 -0.04,0.048c-0.009,0.02 -0.014,0.043 -0.014,0.068l0,0.065c0,0.032 0.005,0.058 0.016,0.08c0.011,0.021 0.025,0.038 0.045,0.048c0.019,0.011 0.041,0.016 0.067,0.016c0.017,0 0.033,-0.002 0.047,-0.007c0.014,-0.005 0.026,-0.012 0.036,-0.022c0.01,-0.01 0.018,-0.021 0.023,-0.035l0.132,0.024c-0.009,0.03 -0.024,0.056 -0.046,0.079c-0.022,0.023 -0.049,0.04 -0.082,0.052c-0.033,0.012 -0.07,0.019 -0.113,0.019Z" style="fill:#67962b;fill-rule:nonzero;"/></g><g transform="matrix(144,0,0,144,945.024235,1089.051583)"><path d="M0.062,0.204l0,-0.75l0.144,0l0,0.092l0.007,0c0.007,-0.015 0.016,-0.029 0.029,-0.045c0.012,-0.015 0.029,-0.028 0.05,-0.038c0.021,-0.01 0.046,-0.016 0.077,-0.016c0.04,0 0.077,0.01 0.111,0.031c0.033,0.021 0.06,0.052 0.08,0.094c0.02,0.042 0.03,0.094 0.03,0.156c0,0.061 -0.01,0.112 -0.029,0.154c-0.02,0.042 -0.046,0.073 -0.08,0.095c-0.034,0.022 -0.071,0.032 -0.113,0.032c-0.03,0 -0.055,-0.005 -0.075,-0.015c-0.021,-0.01 -0.037,-0.022 -0.05,-0.037c-0.013,-0.015 -0.023,-0.03 -0.03,-0.044l-0.005,0l0,0.291l-0.146,0Zm0.261,-0.312c0.026,0 0.047,-0.007 0.064,-0.021c0.017,-0.014 0.03,-0.033 0.039,-0.058c0.009,-0.025 0.013,-0.053 0.013,-0.085c0,-0.032 -0.004,-0.06 -0.013,-0.085c-0.009,-0.024 -0.022,-0.044 -0.039,-0.057c-0.017,-0.014 -0.039,-0.021 -0.065,-0.021c-0.025,0 -0.046,0.007 -0.064,0.02c-0.018,0.013 -0.031,0.032 -0.04,0.057c-0.009,0.024 -0.014,0.053 -0.014,0.086c0,0.033 0.005,0.062 0.014,0.086c0.009,0.025 0.023,0.044 0.04,0.057c0.018,0.014 0.039,0.021 0.064,0.021Z" style="fill:#67962b;fill-rule:nonzero;"/></g><g transform="matrix(144,0,0,144,1035.797673,1089.051583)"></g></g></g></svg>