<?xml version="1.0" encoding="UTF-8" standalone="no"?><!DOCTYPE svg PUBLIC "-//W3C//DTD SVG 1.1//EN" "http://www.w3.org/Graphics/SVG/1.1/DTD/svg11.dtd"><svg width="100%" height="100%" viewBox="0 0 4267 4267" version="1.1" xmlns="http://www.w3.org/2000/svg" xmlns:xlink="http://www.w3.org/1999/xlink" xml:space="preserve" xmlns:serif="http://www.serif.com/" style="fill-rule:evenodd;clip-rule:evenodd;stroke-linejoin:round;stroke-miterlimit:2;"><g id="Background"><path d="M2136.73,767.996c1.987,-4.219 -1.8,-4.633 0.204,-8.889c0.465,-0.988 0.959,-2.036 8.87,-10.383c112.836,-119.053 161.547,-158.269 176.86,-170.597c83.924,-67.563 132.843,-92.81 179.071,-118.683c116.101,-64.981 259.72,-94.105 278.342,-98.573c23.471,-5.631 135.862,-18.85 158.892,-19.028c167.817,-1.297 278.304,29.59 308.261,35.41c47.42,9.213 199.537,55.602 328.428,140.028c2.479,1.624 222.469,130.003 366.465,379.139c108.37,187.499 121.323,314.937 135.761,387.994c17.735,89.735 9.036,266.547 4.119,297.571c-46.602,294.056 -176.174,457.756 -225.94,519.337c-58.843,72.813 -65.424,80.878 -175.7,181.752c-36.286,33.192 -37.412,31.663 -58.739,50.323c-81.275,71.113 -83.091,68.842 -129.128,108.839c-91.011,79.07 -111.172,95.788 -165.36,161.921c-21.308,26.005 -20.583,38.802 -31.129,39.163c-13.85,0.474 -9.252,-6.242 -12.574,-19.503c-3.097,-12.361 -17.909,-66.589 -76.698,-90.225c-31.254,-12.565 -47.912,-4.014 -41.869,-30.37c0.589,-2.567 118.619,-255.041 152.634,-315.731c3.995,-7.127 30.369,-54.185 48.32,-89.978c70.792,-141.152 74.834,-139.314 129.283,-287.539c19.677,-53.566 46.388,-166.321 50.675,-198.364c15.371,-114.884 37.322,-305.116 -58.343,-536.957c-16.498,-39.982 -54.116,-101.656 -59.885,-109.698c-39.623,-55.226 -56.33,-86.784 -137.832,-160.91c-29.19,-26.548 -144.326,-128.366 -331.693,-181.945c-149.132,-42.645 -255.381,-36.77 -276.974,-36.435c-53.757,0.835 -137.659,14.134 -148.132,16.49c-89.762,20.188 -187.647,40.474 -326.899,128.285c-35.396,22.321 -30.645,30.177 -69.582,45.246l0.291,-7.692Z" style="fill:#81b331;"/><path d="M2136.73,767.996l-0.291,7.692c-3.2,-0.823 -6.674,1.7 -9.874,0.877c-15.065,-3.875 -41.514,-32.231 -100.855,-65.934c-69.829,-39.66 -184.979,-85.118 -247.71,-97.65c-32.165,-6.425 -35.025,-13.292 -98.887,-19.376c-22.368,-2.131 -259.282,-44.101 -524.261,87.382c-175.422,87.044 -269.133,213.405 -286.875,237.329c-55.207,74.441 -148.007,238.174 -156.235,435.374c-1.235,29.597 -3.505,29.284 -3.628,59.33c-0.286,69.68 1.83,69.426 5.591,139.143c1.483,27.492 20.345,148.427 50.576,238.68c11.49,34.302 10.719,34.368 24.047,67.912c32.022,80.592 30.478,81.108 69.846,158.294c18.163,35.611 17.546,35.776 36.567,71.061c11.781,21.855 101.322,187.964 139.344,277.313c6.384,15.003 7.672,14.234 19.427,39.894c2.956,6.452 3.783,5.91 38.78,79.78c3.967,8.374 21.969,31.166 2.208,38.74c-9.99,3.829 -15.501,1.836 -41.929,14.938c-64.03,31.743 -66.298,90.575 -75.607,95.978c-9.744,5.655 -11.125,3.91 -18.661,-4.531c-16.472,-18.448 -14.582,-19.86 -31.078,-38.291c-15.036,-16.8 -41.053,-52.677 -226.678,-210.386c-45.462,-38.625 -46.138,-37.66 -90.132,-78.101c-54.33,-49.942 -55.719,-48.24 -108.381,-99.747c-73.192,-71.588 -71.275,-73.32 -133.859,-154.24c-67.372,-87.112 -155.362,-272.519 -173.458,-428.51c-3.331,-28.71 -5.663,-28.275 -11.418,-89.041c-6.904,-72.897 -10.348,-135.567 12.826,-286.879c7.066,-46.137 38.726,-163.906 67.439,-227.706c2.192,-4.871 35.918,-88.019 92.631,-172.524c13.935,-20.763 42.092,-67.671 115.007,-144.356c46.064,-48.446 45.571,-48.732 96.12,-92.504c30.085,-26.052 91.254,-71.293 93.775,-72.861c65.629,-40.814 293.05,-197.498 641.595,-192.805c29.76,0.401 29.551,2.045 59.279,3.469c59.327,2.842 155.021,25.042 168.321,28.127c263.338,61.091 462.459,243.443 511.38,299.621c5.549,6.372 38.013,43.653 74.371,75.004c1.751,1.51 4.108,2.314 5.624,4.059c2.35,2.706 0.723,3.562 3.213,6.114c5.353,5.487 6.546,3.889 11.853,9.329Z" style="fill:#238fcc;"/><path d="M2263.838,3861.447c-77.284,60.082 -78.072,69.164 -88.656,60.72c-3.605,-2.876 -2.614,-11.823 -2.253,-188.61c0.488,-239.054 -1.074,-239.01 4.016,-277.493c2.94,-22.228 0.033,-51.591 17.195,-119.469c37.972,-150.18 82.606,-231.261 188.131,-347.998c20.053,-22.184 20.161,-22.154 123.141,-104.407c15.279,-12.204 95.292,-59.267 105.073,-65.219c35.832,-21.805 36.339,-20.474 97.844,-52.297c39.911,-20.65 265.833,-132.413 369.018,-155.565c78.117,-17.527 103.472,3.29 117.238,23.141c10.4,14.997 18.476,56.632 -19.912,105.847c-55.643,71.337 -122.066,92.456 -242.733,174.472c-2.132,1.449 -46.026,36.871 -63.686,64.442c-11.916,18.604 -34.052,49.229 -8.739,51.069c25.339,1.841 127.892,-5.178 198.651,-29.809c149.726,-52.119 222.211,-115.462 308.899,-197.084c121.688,-114.576 256.159,-335.45 386.593,-466.404c60.407,-60.648 79.609,-76.387 136.048,-112.737c63.526,-40.915 132.823,-57.605 139.629,-55.312c2.064,0.695 2.738,3.394 4.245,4.965c8.852,9.228 1.815,10.623 -6.066,31.886c-98.688,266.237 -162.274,385.209 -263.578,567.073c-19.203,34.474 -93.132,151.191 -121.852,186.601c-45.366,55.933 -105.873,146.947 -265.845,269.796c-166.717,128.028 -365.182,211.901 -526.358,286.68c-91.96,42.665 -306.706,154.868 -409.128,224.179c-5.835,3.949 -6.45,2.762 -74.098,47.599c-6.59,4.368 -53.259,35.3 -80.64,57.121c-9.885,7.878 -20.375,15.504 -22.176,16.814Z" style="fill:#73a42d;"/><path d="M2005.587,3874.049c-102.993,-76.479 -165.347,-116.63 -180.139,-126.156c-19.425,-12.508 -143.967,-92.705 -247.702,-148.489c-218.727,-117.622 -224.99,-104.715 -445.821,-218.755c-15.502,-8.006 -122.501,-63.262 -187.407,-111.542c-40.207,-29.909 -61.84,-44.296 -69.097,-50.133c-91.844,-73.87 -141.458,-128.015 -173.631,-163.423c-31.587,-34.763 -122.89,-147.994 -207.085,-301.266c-9.921,-18.061 -84.063,-153.032 -117.312,-229.319c-30.555,-70.105 -47.589,-100.896 -74.52,-170.595c-21.999,-56.935 -50.707,-121.97 -59.856,-148.519c-5.267,-15.286 -10.954,-24.226 -4.231,-31.288c1.387,-1.457 2.078,-3.794 3.929,-4.58c8.555,-3.633 56.677,13.446 67.287,18.61c40.924,19.918 137.643,59.501 285.27,238.628c95.688,116.105 159.866,214.692 239.773,306.078c115.374,131.949 219.567,215.374 377.368,269.314c79.686,27.239 189.871,32.109 197.962,24.935c8.408,-7.455 -5.27,-27.743 -10.647,-36.538c-3.59,-5.871 -3.632,-5.69 -7.075,-11.59c-44.582,-76.406 -211.136,-154.65 -255.711,-191.367c-91.307,-75.209 -92.615,-155.909 -43.165,-176.574c81.078,-33.883 264.774,67.063 318.706,89.072c33.958,13.858 167.206,83.349 254.559,135.077c203.859,120.721 275.232,240.062 278.579,244.599c152.567,206.829 136.653,440.089 136.731,464.928c0.095,30.011 1.173,371.374 -0.476,375.141c-3.064,6.997 -14.998,3.798 -16.284,3.453c-2.961,-0.794 -25.376,-24.578 -60.004,-49.7Z" style="fill:#2597d1;"/><path d="M2109.076,3166.674c-13.667,-28.137 -28.021,-50.341 -28.119,-50.516c-5.931,-10.584 -37.507,-66.933 -85.384,-125.336c-114.514,-139.693 -212.811,-191.608 -294.168,-242.207c-30.173,-18.766 -39.258,-12.864 -47.854,-47.34c-18.181,-72.92 -17.18,-73.086 -22.322,-147.902c-3.514,-51.138 18.528,-140.928 42.451,-196.356c6.886,-15.954 35.136,-62.931 39.251,-68.712c27.589,-38.753 49.808,-58.822 54.778,-63.311c40.464,-36.549 83.459,-62.074 91.233,-66.689c11.582,-6.876 72.566,-43.08 158.368,-57.142c109.973,-18.022 161.862,-9.66 217.126,-0.834c163.988,26.188 318.6,144.171 373.058,325.545c12.201,40.637 19.573,113.83 16.573,137.795c-10.464,83.595 -10.221,83.611 -11.503,89.141c-5.251,22.656 -14.227,63.359 -20.207,69.66c-7.217,7.605 -59.565,32.611 -81.093,47.136c-29.516,19.914 -104.097,64.784 -184.262,143.727c-7.558,7.443 -57.699,56.819 -87.474,99.641c-3.244,4.666 -35.738,51.399 -40.035,58.679c-66.803,113.176 -56.001,127.868 -73.361,125.361c-7.133,-1.03 -5.796,-3.137 -8.343,-9.978c-3.909,-10.498 -3.91,-10.293 -8.714,-20.361Z" style="fill:#f9a425;"/><path d="M1512.781,2648.934c-195.103,-93.329 -196.525,-92.7 -257.243,-147.765c-110.623,-100.323 -147.888,-196.543 -156.054,-213.198c-34.036,-69.424 -49.288,-160.629 -50.888,-181.141c-5.384,-69.028 -7.236,-69.055 -0.139,-138.061c11.724,-113.997 72.066,-219.4 103.507,-259.742c84.081,-107.887 177.941,-150.356 199.083,-159.912c121.889,-55.089 226.121,-59.746 337.886,-43.233c64.845,9.581 187.91,64.254 191.15,74.338c4.871,15.16 -1.957,14.172 -12.499,30.883c-36.161,57.32 -47.628,78.271 -60.213,158.784c-7.426,47.508 4.338,143.011 58.822,219.494c16.991,23.852 30.935,38.557 11.2,47.597c-179.782,82.354 -259.2,231.303 -261.996,235.998c-91.794,154.171 -73.836,284.74 -70.877,319.843c4.721,56.009 9.009,55.521 8.226,60.329c-0.471,2.887 -9.429,9.645 -12.041,9.285c0,0 -25.691,-12.418 -27.925,-13.498Z" style="fill:#1658a6;"/><path d="M2742.87,2647.595c-6.67,3.63 -22.964,15.163 -30.702,11.799c-14.461,-6.286 2.256,-12.424 3.453,-105.852c0.902,-70.43 0.628,-70.692 -20.943,-159.602c-10.203,-42.054 -43.61,-119.535 -86.764,-174.761c-50.325,-64.404 -97.901,-101.427 -107.568,-108.95c-44.622,-34.725 -123.104,-74.104 -123.788,-75.001c-12.188,-15.982 12.299,-16.868 53.378,-107.99c1.301,-2.885 33.045,-87.956 22.607,-157.148c-7.886,-52.275 -18.399,-98.382 -64.34,-161.98c-16.436,-22.752 2.719,-31.776 6.707,-34.303c19.491,-12.347 109.018,-58.246 197.322,-68.774c15.76,-1.879 118.313,-14.107 198.306,5.887c77.454,19.359 211.394,59.758 318.673,198.352c59.969,77.474 105.399,184.981 109.555,318.54c0.197,6.332 -0.021,6.175 -5.874,78.972c-7.594,94.456 -60.863,215.144 -107.425,276.551c-13.216,17.43 -74.604,103.078 -164.302,163.614c-14.746,9.952 -62.686,42.305 -198.295,100.648Z" style="fill:#6a9b2a;"/><path d="M1658.876,1419.445c-48.868,9.262 -69.576,11.732 -127.404,0.432c-84.575,-16.527 -140.995,-75.123 -150.593,-85.091c-120.962,-125.63 -82.508,-294.872 -23.44,-371.645c17.434,-22.659 39.137,-53.025 102.122,-89.067c108.456,-62.062 335.63,-48.638 413.243,160.218c38.055,102.407 16.984,236.694 -87.519,325.267c-37.53,31.809 -88.121,48.822 -96.413,51.611c-2.359,0.793 -2.222,0.613 -29.996,8.276Z" style="fill:#1c6ebc;"/><path d="M2632.506,1418.825c-15.101,-4.541 -82.299,-17.528 -148.338,-86.426c-84.246,-87.894 -78.344,-202.351 -76.867,-216.457c5.078,-48.514 18.986,-138.38 112.124,-212.538c89.608,-71.348 198.347,-64.604 231.56,-57.846c71.556,14.559 94.205,34.079 107.968,42.914c146.739,94.21 143.322,250.206 129.877,306.441c-22.339,93.437 -71.972,137.579 -76.293,141.981c-11.287,11.5 -73.727,75.117 -181.757,86.801c-55.805,6.036 -91.628,-3.711 -98.273,-4.87Z" style="fill:#80b231;"/><path d="M2125.839,2033.955c-1.867,-0.111 -29.663,-0.254 -49.822,-5.371c-34.339,-8.717 -46.988,-15.855 -50.739,-17.971c-47.49,-26.799 -103.572,-62.912 -128.141,-171.051c-17.201,-75.708 19.646,-226.503 178.684,-269.405c22.415,-6.047 80.419,-7.701 109.882,-0.052c69.288,17.988 103.416,54.574 118.669,70.928c86.825,93.088 61.82,206.648 49.417,238.046c-57.707,146.077 -178.993,153.733 -227.95,154.876Z" style="fill:#faaf2b;"/><path d="M1957.175,2628.517c-51.988,0.355 -71.673,6.589 -71.251,-45.324c0.695,-85.428 -2.546,-96.723 21.191,-101.605c9.929,-2.042 126.243,-0.734 129.089,-1.297c18.277,-3.617 17.961,-7.558 18.166,-26.036c1.325,-119.882 -3.409,-133.706 10.575,-140.727c9.909,-4.975 10.469,-3.142 100.666,-4.403c41.262,-0.577 34.715,27.312 34.951,95.568c0.184,53.094 -1.659,64.039 3.905,69.981c7.28,7.774 23.774,5.903 109.718,5.549c38.419,-0.158 54.177,-1.493 54.405,43.458c0.365,71.891 7.769,102.405 -34.747,104.875c-5.693,0.331 -113.281,-0.372 -119.687,1.371c-12.365,3.363 -12.841,20.353 -12.899,22.422c-0.454,16.223 1.676,120.9 -0.715,128.006c-6.847,20.35 -15.635,20.453 -104.502,21.243c-49.693,0.442 -42.446,-24.964 -40.969,-119.235c0.205,-13.059 3.477,-46.136 -7.709,-51.126c-6.984,-3.116 -25.259,-2.67 -90.187,-2.719Z" style="fill:#fdfdfd;"/></g></svg>